<?xml version="1.0" standalone="no"?>
<!DOCTYPE svg PUBLIC "-//W3C//DTD SVG 20010904//EN"
 "http://www.w3.org/TR/2001/REC-SVG-20010904/DTD/svg10.dtd">
<svg version="1.0" xmlns="http://www.w3.org/2000/svg"
 width="1024.000000pt" height="1024.000000pt" viewBox="0 0 1024.000000 1024.000000"
 preserveAspectRatio="xMidYMid meet">
<metadata>
Created by potrace 1.11, written by Peter Selinger 2001-2013
</metadata>
<g transform="translate(0.000000,1024.000000) scale(0.100000,-0.100000)"
fill="#000000" stroke="none">
<path d="M1905 5165 l0 -2265 286 0 286 0 0 1015 c0 558 3 1018 6 1021 5 5
2160 9 2210 5 4 -1 7 -460 7 -1021 l0 -1020 285 0 285 0 0 2265 0 2265 -285 0
-285 0 0 -998 0 -997 -1112 0 -1111 0 0 998 0 997 -286 0 -286 0 0 -2265z"/>
<path d="M7763 5783 c0 -907 -3 -1682 -7 -1723 -23 -278 -118 -485 -265 -579
-116 -75 -246 -105 -456 -105 -207 -1 -262 7 -436 64 -163 53 -344 143 -498
247 -18 12 -36 21 -40 19 -6 -4 -6 -585 0 -589 22 -15 264 -124 334 -150 123
-47 295 -97 380 -111 17 -3 46 -8 65 -11 141 -25 383 -31 495 -14 135 21 144
23 249 59 273 92 493 284 609 532 46 98 95 269 112 388 3 25 8 56 10 70 16
100 18 364 19 1863 l1 1687 -286 0 -286 0 0 -1647z"/>
</g>
</svg>
